<svg xmlns="http://www.w3.org/2000/svg" version="1.1" xmlns:xlink="http://www.w3.org/1999/xlink" xmlns:svgjs="http://svgjs.dev/svgjs" width="100%" height="100%" viewBox="0 0 1000 600"><rect width="1000" height="600" x="0" y="0" fill="#ffffff"/><g><circle r="166.66666666666666" cx="338.5174814860026" cy="360.7397000445426" fill="#243665" transform="matrix(0.7273751866089091,0,0,0.7273751866089091,0,37.60690503710225)"/><path d="M296.18583820341405 435.739703868994L278.8190040325598 435.739703868994L319.8240291581879 285.739703868994L357.3918683541678 285.739703868994L398.2159889571829 435.739703868994L380.8491547863286 435.739703868994L370.2059387059266 397.7497541202503L306.7989035300472 397.7497541202503L296.18583820341405 435.739703868994ZM332.8491547863286 300.48342246195887L310.5074462436151 382.3427189443709L366.4973959923588 382.3427189443709L344.1556874496452 300.48342246195887L332.8491547863286 300.48342246195887Z " fill="#00cc33" transform="matrix(0.7273751866089091,0,0,0.7273751866089091,0,37.60690503710225)"/><path d="M601.3118119278741 400.39985842778606L588.5174980582154 400.39985842778606L618.7262946949098 289.89341484870175L646.4028833782342 289.89341484870175L676.4784059121197 400.39985842778606L663.6840920424609 400.39985842778606L655.8431323272013 372.4122968379074L609.1305592926657 372.4122968379074L601.3118119278741 400.39985842778606ZM628.322030097154 300.75525422763087L611.8626784002491 361.06178574867886L653.1110132196178 361.06178574867886L636.651661522713 300.75525422763087L628.322030097154 300.75525422763087ZM721.2585044559255 401.9991476614934L721.2585044559255 401.9991476614934Q708.6196770395438 401.9991476614934 701.4228754878607 397.75658872207526Q694.2260739361776 393.5140297826572 691.2718313239127 384.0959931841583Q688.2953763611795 374.6557442351913 688.2953763611795 359.12931125794915L688.2953763611795 359.12931125794915Q688.2953763611795 344.5802217013059 691.5828042304669 335.71749386451097Q694.8702320997542 326.8325536772479 702.2225201047144 322.83433059297954Q709.5748081096746 318.83610750871117 721.4139909092025 318.83610750871117L721.4139909092025 318.83610750871117Q724.1238976663178 318.83610750871117 728.0554836991817 319.235929817138Q731.9648573815774 319.63575212556486 736.1185669191229 320.1910608872688Q740.2722764566685 320.74636964897275 743.315368470806 321.2350413592722L743.315368470806 321.2350413592722L742.8489091109748 331.4749349250929Q740.1167900033913 331.14174966807053 736.6072386294225 330.8307767615163Q733.0754749049853 330.5198038549621 729.7214099842936 330.27546799981235Q726.3673450636018 330.03113214466265 724.1238976663178 330.03113214466265L724.1238976663178 330.03113214466265Q715.0168339743732 330.03113214466265 709.9746304181014 332.91873770552314Q704.9324268618296 335.78413091591545 702.9333153196955 342.1146507993404Q700.9342037775613 348.4229583322971 700.9342037775613 359.12931125794915L700.9342037775613 359.12931125794915Q700.9342037775613 370.81300760420004 702.6889794645457 377.7654733007334Q704.4659675019983 384.71793899726674 709.4193216563974 387.7610310114043Q714.3726758107966 390.80412302554197 724.1238976663178 390.80412302554197L724.1238976663178 390.80412302554197Q726.3673450636018 390.80412302554197 729.8102593861662 390.5597871703922Q733.2531737087306 390.31545131524246 736.8515744845722 390.00447840868827Q740.4499752604137 389.6935055021341 743.1598820175288 389.5158066983888L743.1598820175288 389.5158066983888L743.4708549240831 399.75570026420945Q740.2722764566685 400.24437197450897 736.1185669191229 400.71083133434024Q731.9648573815774 401.1995030446397 727.966634297309 401.59932535306655Q723.9684112130408 401.9991476614934 721.2585044559255 401.9991476614934ZM778.8329168693901 401.9991476614934L778.8329168693901 401.9991476614934Q767.7933786867158 401.9991476614934 762.040379915463 395.7574771799411Q756.265168793742 389.5158066983888 756.265168793742 377.52113744558363L756.265168793742 377.52113744558363Q756.265168793742 369.70239008079216 758.9972879013253 364.72682357592487Q761.7071946584406 359.7734694215257 767.2380699250118 357.13019971581497Q772.7467328411149 354.50914236057235 780.8986654629288 353.86498419699575L780.8986654629288 353.86498419699575L805.5321621321156 351.46605034643477L805.5321621321156 344.5802217013059Q805.5321621321156 336.428289079492 801.933761356274 333.07422415880023Q798.3353605804325 329.7201592381084 791.2940454820265 329.7201592381084L791.2940454820265 329.7201592381084Q787.2958223977582 329.7201592381084 781.7871594816551 330.03113214466265Q776.2562842150838 330.34210505121683 770.8364707008533 330.8307767615163Q765.3944448361548 331.31944847181575 761.2407352986093 331.7859078316471L761.2407352986093 331.7859078316471L760.5965771350327 322.3456588826801Q764.4393137660239 321.5460142658264 769.8591272802544 320.74636964897275Q775.301153144953 319.94672503211905 781.2318507199511 319.3914162704151Q787.1403359444811 318.83610750871117 792.0936900988802 318.83610750871117L792.0936900988802 318.83610750871117Q801.222966141293 318.83610750871117 806.9759649125458 321.63486366769905Q812.7289636837986 324.4336198266869 815.3722333895093 330.11998154653526Q818.0155030952202 335.78413091591545 818.0155030952202 344.5802217013059L818.0155030952202 344.5802217013059L818.0155030952202 385.0511242542891Q818.3264760017744 388.560675628258 820.8142592542081 390.15996486196536Q823.2798301561735 391.7592540956727 827.1225667871648 392.2479258059722L827.1225667871648 392.2479258059722L826.6338950768653 401.9991476614934Q824.4126600300496 401.9991476614934 822.3246990860428 401.8436612082163Q820.236738142036 401.6881747549392 818.415325403647 401.28835244651236Q816.57170031479 400.8885301380855 814.8169246278055 400.39985842778606L814.8169246278055 400.39985842778606Q812.7289636837986 399.60021381093236 810.8853385949416 398.4895962875245Q809.0417135060845 397.3567664136485 807.2869378191001 395.7574771799411L807.2869378191001 395.7574771799411Q804.2438458049625 397.04579350709423 799.534827505713 398.4895962875245Q794.8258092064636 399.9111867174866 789.4504203931695 400.95516718949Q784.0972439303434 401.9991476614934 778.8329168693901 401.9991476614934ZM780.8986654629288 391.6037676423956L780.8986654629288 391.6037676423956Q785.2300738042195 391.6037676423956 789.8502427015962 390.80412302554197Q794.4926239494412 390.00447840868827 798.6463334869867 388.8938608852804Q802.8222553750004 387.7610310114043 805.5321621321156 386.8058999412736L805.5321621321156 386.8058999412736L805.5321621321156 360.7286004916565L782.342468243359 362.9720478889404Q775.145666691676 363.616206052517 772.0359376261339 367.1257574264859Q768.9039962101236 370.65752115092295 768.9039962101236 377.21016453902945L768.9039962101236 377.21016453902945Q768.9039962101236 383.9182943804131 771.9470882242612 387.7610310114043Q774.9901802383988 391.6037676423956 780.8986654629288 391.6037676423956ZM866.9493111765714 401.9991476614934L866.9493111765714 401.9991476614934Q862.1514434754495 401.9991476614934 857.8200351341586 400.95516718949Q853.510839143336 399.9111867174866 849.9124383674946 397.3567664136485Q846.314037591653 394.8023461098103 843.6041308345377 390.248814263838Q840.8720117269544 385.6952824178657 839.4282089465241 378.4984808661826Q838.0066185165621 371.3016793144995 838.0066185165621 361.06178574867886L838.0066185165621 361.06178574867886Q838.0066185165621 346.8236690985898 841.3606834372538 337.47226955149546Q844.7147483579456 328.12087000440107 852.0670363629058 323.47848875655615Q859.419324367866 318.83610750871117 871.5916924244164 318.83610750871117L871.5916924244164 318.83610750871117Q874.6125720880859 318.83610750871117 878.2998222658 319.1470804152654Q881.9870724435141 319.48026567228777 885.4077744156104 319.94672503211905Q888.8506887381749 320.4353967424185 890.9386496821817 320.924068452718L890.9386496821817 320.924068452718L890.9386496821817 285.7397053111563L903.3997782948181 285.7397053111563L903.3997782948181 400.39985842778606L891.0941361354587 400.39985842778606L891.0941361354587 395.1133190163645Q888.5397158316207 396.5571217967948 884.4526433454796 398.1564110305021Q880.3877832098068 399.75570026420945 875.8120390133663 400.8885301380855Q871.258507167394 401.9991476614934 866.9493111765714 401.9991476614934ZM868.5486004102788 390.80412302554197L868.5486004102788 390.80412302554197Q872.7023099478242 390.80412302554197 876.9448688872424 389.8489919554112Q881.1874278266605 388.8938608852804 884.8524656539065 387.5166951562546Q888.5397158316207 386.161741777697 890.9386496821817 385.0511242542891L890.9386496821817 385.0511242542891L890.9386496821817 331.4749349250929Q889.006175191452 331.14174966807053 885.6521102707602 330.7419273596437Q882.2980453500684 330.34210505121683 878.6996445742269 330.03113214466265Q875.1012437983853 329.7201592381084 872.2136382375248 329.7201592381084L872.2136382375248 329.7201592381084Q864.0617056157109 329.7201592381084 859.419324367866 333.2297106120773Q854.7991554704893 336.73926198604624 852.8000439283551 343.7139400330477Q850.8009323862209 350.6664057295811 850.8009323862209 361.06178574867886L850.8009323862209 361.06178574867886Q850.8009323862209 370.65752115092295 852.2225228161828 376.4993693240484Q853.6663255966132 382.3190051467057 856.1541088490469 385.45094656271596Q858.6196797510124 388.560675628258 861.818258218427 389.6935055021341Q865.0168366858418 390.80412302554197 868.5486004102788 390.80412302554197ZM954.7547325771986 401.9991476614934L954.7547325771986 401.9991476614934Q942.7600633243935 401.9991476614934 935.785385277392 397.3567664136485Q928.8329195808587 392.7143851658035 925.789827566721 383.60732147385886Q922.7689479030516 374.50025778191423 922.7689479030516 360.90629929540177L922.7689479030516 360.90629929540177Q922.7689479030516 345.7130515751819 926.922657440597 336.51713848136467Q931.0763669781426 327.3212253875474 938.5841414363799 323.0786664481293Q946.1141282450853 318.83610750871117 956.3540218109059 318.83610750871117L956.3540218109059 318.83610750871117Q972.3469141479795 318.83610750871117 980.4988467697933 327.7210476959742Q988.6507793916072 336.58377553276915 988.6507793916072 356.2639180475568L988.6507793916072 356.2639180475568L988.0066212280306 365.7041669965238L935.3855629689651 365.7041669965238Q935.5632617727105 378.16529560916024 940.02794421681 384.56245254398965Q944.514839011378 390.95960947881906 956.1763230071607 390.95960947881906L956.1763230071607 390.95960947881906Q960.6632178017285 390.95960947881906 966.0163942645545 390.7152736236693Q971.3695707273805 390.4931501189877 976.656110138802 390.15996486196536Q981.9426495502236 389.8489919554112 985.6076873774696 389.5158066983888L985.6076873774696 389.5158066983888L985.9408726344919 399.2892409043782Q982.0981360035007 399.9111867174866 976.5672607369295 400.55534488106315Q971.0585978208263 401.1995030446397 965.3055990495735 401.59932535306655Q959.5526002783206 401.9991476614934 954.7547325771986 401.9991476614934ZM935.3855629689651 355.61975988398024L935.3855629689651 355.61975988398024L976.1674384285027 355.61975988398024Q976.1674384285027 340.9151838740599 971.4584201292532 335.0733357009344Q966.7494018300038 329.23148752780895 956.3540218109059 329.23148752780895L956.3540218109059 329.23148752780895Q949.6236796190542 329.23148752780895 944.9812983712093 331.8747572335197Q940.3611294738325 334.5180269392305 937.8733462213988 340.2710257104833Q935.3855629689651 346.02402448173615 935.3855629689651 355.61975988398024ZM1019.5259465423462 400.39985842778606L1007.1980920325188 400.39985842778606L1007.1980920325188 320.4353967424185L1019.5259465423462 320.4353967424185L1019.5259465423462 326.0329090603943Q1022.0803668461845 324.4336198266869 1025.9231034771756 322.83433059297954Q1029.743627757699 321.2350413592722 1034.1416731503941 320.0355744339917Q1038.5397185430893 318.83610750871117 1042.5379416273577 318.83610750871117L1042.5379416273577 318.83610750871117Q1050.5343877958944 318.83610750871117 1055.421104898889 320.74636964897275Q1060.3078220018838 322.67884413970245 1063.3287016655531 326.988040130525L1063.3287016655531 326.988040130525Q1066.527280132968 325.2332644435406 1071.1696613808126 323.323002303279Q1075.8120426286578 321.3905278125493 1081.1652190914838 320.1244238358643Q1086.5183955543098 318.83610750871117 1091.649448512454 318.83610750871117L1091.649448512454 318.83610750871117Q1099.801381134268 318.83610750871117 1105.0879205456895 320.924068452718Q1110.3522476066428 322.98981704625663 1113.3064902189076 327.6321982941016Q1116.282945181641 332.27457954194654 1117.4824121069214 339.71571694877935Q1118.6818790322018 347.13464200514403 1118.6818790322018 358.0186937345413L1118.6818790322018 358.0186937345413L1118.6818790322018 400.39985842778606L1106.3540245223744 400.39985842778606L1106.3540245223744 358.50736544484073Q1106.3540245223744 348.11198542574294 1105.154557597094 341.8703149441906Q1103.9550906718137 335.62864446263836 1100.4455392978448 332.8298883036505Q1096.9137755734073 330.03113214466265 1089.7169740217241 330.03113214466265L1089.7169740217241 330.03113214466265Q1085.563264484179 330.03113214466265 1081.320705544761 330.91962616338895Q1077.1003589558109 331.7859078316471 1073.5019581799693 333.1408612102047Q1069.9035574041277 334.5180269392305 1067.6601100068438 335.78413091591545L1067.6601100068438 335.78413091591545Q1068.7707275302519 339.9378404534609 1069.1705498386787 346.11287388360876Q1069.5703721471054 352.2656949632884 1069.5703721471054 358.8183383513949L1069.5703721471054 358.8183383513949L1069.5703721471054 400.39985842778606L1057.2647299877463 400.39985842778606L1057.2647299877463 359.12931125794915Q1057.2647299877463 348.26747187902004 1056.13190011387 341.9369519955951Q1055.0212825904623 335.62864446263836 1051.4228818146207 332.8298883036505Q1047.8244810387791 330.03113214466265 1040.627679487096 330.03113214466265L1040.627679487096 330.03113214466265Q1036.6294564028276 330.03113214466265 1032.5423839166865 330.91962616338895Q1028.4775237810136 331.7859078316471 1025.123458860322 333.1408612102047Q1021.747181589162 334.5180269392305 1019.5259465423462 335.78413091591545L1019.5259465423462 335.78413091591545L1019.5259465423462 400.39985842778606ZM1170.0146209641143 435.7397080226248L1157.5312800010097 435.7397080226248L1167.9266600201076 400.39985842778606L1155.9319907673025 400.39985842778606L1133.3864550421222 320.4353967424185L1145.8697960052268 320.4353967424185L1165.3722397162692 389.6935055021341L1170.814265580968 389.6935055021341L1190.4721957452875 320.4353967424185L1202.9555367083917 320.4353967424185L1170.0146209641143 435.7397080226248Z " fill="#00cc33" transform="matrix(0.7273751866089091,0,0,0.7273751866089091,0,37.60690503710225)"/></g></svg>